<svg xmlns="http://www.w3.org/2000/svg" width="110" height="70" viewBox="0 0 110 70">
  <g fill="#FFF">
    <path d="M102.52922,25.0441104 C97.7318908,20.7558589 91.2942105,17.0669018 84.3989474,14.6538344 C84.3944444,14.6521166 84.3901559,14.6506135 84.385653,14.6488957 C84.3781481,14.646319 84.3708577,14.6435276 84.3633528,14.6407362 C81.1810721,13.5293252 77.911306,12.6908282 74.6316764,12.1374847 C72.6956335,9.78690184 66.2742495,2.96211656 55.1552437,0.375122699 C53.3077583,-0.0551840491 51.3950877,0.377484663 49.905692,1.56147239 C48.407076,2.75319018 47.5476608,4.5347546 47.5476608,6.44966258 L47.5476608,15.2922086 C37.104308,19.894816 28.8251462,27.401135 24.3738986,32.0099693 C23.7111111,28.6594172 22.2412281,24.4235583 18.9969786,21.1747853 C12.8191813,14.988589 2.87479532,15.2456135 2.45709552,15.2597853 C1.23787524,15.3003681 0.259025341,16.2805828 0.218927875,17.5015031 C0.204775828,17.9221472 -0.0491033138,27.8758896 6.12805068,34.0616564 C7.66054581,35.5962883 9.41690058,36.7218712 11.2054191,37.5494172 C9.41690058,38.3943558 7.66011696,39.531319 6.12783626,41.0657362 C-0.0491033138,47.253865 0.204990253,57.2073926 0.218927875,57.6280368 C0.259025341,58.8489571 1.23787524,59.8293865 2.45709552,59.8699693 C2.49676413,59.8712577 2.62177388,59.874908 2.82097466,59.874908 C4.72592593,59.874908 13.4045614,59.5549693 18.9969786,53.9526074 C22.26846,50.6765644 23.7353411,46.343865 24.3893372,42.9299693 C27.6541715,46.3043558 32.9723392,51.2311963 39.695848,55.4440798 L39.695848,63.549908 C39.695848,65.5384663 40.6090838,67.360184 42.2014035,68.5476074 C43.2966862,69.3642025 44.5862378,69.7869939 45.9034503,69.7869939 C46.504269,69.7869939 47.1108772,69.6991718 47.707193,69.5205215 C53.3109747,67.8450307 57.5505848,64.7871472 59.5157895,63.1760736 C61.4091618,63.4539264 63.2956725,63.5965031 65.1382261,63.5965031 C71.4635478,63.5965031 77.792729,62.5310429 83.9495127,60.430184 C83.9535867,60.4288957 83.9576608,60.4273926 83.9617349,60.4261043 C98.3198441,55.5256748 109.999142,45.2268712 109.999142,37.4643865 C110.000429,33.7612577 107.347135,29.3506135 102.52922,25.0441104 Z M9.40424951,30.7817485 C6.23504873,27.6081288 5.26649123,22.8453374 4.97337232,20.0133436 C7.79606238,20.3004294 12.5354971,21.2638957 15.7220663,24.454908 C18.8884795,27.6255215 19.8576803,32.2989877 20.1520858,35.073865 C17.3697076,34.8408896 12.5822417,33.9641718 9.40424951,30.7817485 Z M15.7218519,50.6726994 C12.5554386,53.8446012 7.80378168,54.8151534 4.97423002,55.1091104 C5.26863548,52.2745399 6.23847953,47.5171166 9.40424951,44.3454294 C12.5837427,41.1615031 17.361345,40.1969632 20.1578752,39.9075153 C19.8714035,42.7332822 18.9094932,47.4806135 15.7218519,50.6726994 Z M52.1803119,6.44944785 C52.1803119,5.95794479 52.4011696,5.5003681 52.7867057,5.19395706 C53.0075634,5.01809816 53.4732943,4.7456135 54.1064912,4.89312883 C59.9551462,6.25404908 64.3390643,8.99822086 67.2425926,11.3717791 C66.5394932,11.3451534 65.8378947,11.3316258 65.1390838,11.3316258 C60.9119103,11.3316258 56.5661598,12.0634049 52.1803119,13.5078528 L52.1803119,6.44944785 L52.1803119,6.44944785 Z M46.3818324,65.0757362 C45.8929435,65.2221779 45.3774659,65.1315644 44.9689864,64.8268712 C44.7299025,64.6486503 44.3287135,64.2458282 44.3287135,63.549908 L44.3287135,58.0909816 C47.3879142,59.6728528 50.4419688,60.9182515 53.468577,61.8222393 C51.6105848,62.9884049 49.1976608,64.2338037 46.3818324,65.0757362 Z M65.1392982,58.9573926 C63.2094737,58.9573926 61.2187524,58.7808896 59.2248148,58.4332515 C54.0140741,57.5200307 48.6236452,55.4082209 43.2034113,52.1553681 C34.6643665,47.0301227 28.2348343,40.361227 25.6469396,37.4633129 C28.9426511,33.7713497 38.4721248,23.9642638 50.7325146,18.9788037 C50.7473099,18.9727914 50.7623197,18.9674233 50.7769006,18.9611963 C55.6711501,16.9769325 60.5030019,15.9703067 65.1390838,15.9703067 C67.7471345,15.9703067 70.3976413,16.1727914 73.0179142,16.5726074 C75.0180702,16.8770859 77.0173684,17.3009509 78.9958674,17.8347546 C74.1352827,23.0014417 71.049922,30.6121166 71.049922,37.9831595 C71.049922,44.7132515 74.0287135,51.9762883 78.7160429,57.1680982 C74.2354191,58.3548773 69.6842495,58.9573926 65.1392982,58.9573926 Z M83.6861988,55.602546 C78.8588499,51.2453681 75.6821442,44.3265337 75.6821442,37.983589 C75.6821442,31.0454294 79.0638402,23.6161963 84.0181287,19.4490491 C97.2777388,24.4149693 105.368207,33.1742025 105.368207,37.4637423 C105.368207,41.8260736 97.1529435,50.6608896 83.6861988,55.602546 Z"/>
    <path d="M92.2357505 34.6248773C90.9567057 34.6248773 89.9195322 35.6634969 89.9195322 36.9443252L89.9195322 37.9833742C89.9195322 39.2642025 90.9567057 40.3028221 92.2357505 40.3028221 93.5147953 40.3028221 94.5519688 39.2642025 94.5519688 37.9833742L94.5519688 36.9443252C94.5517544 35.6634969 93.5145809 34.6248773 92.2357505 34.6248773zM68.2510331 21.8728528C67.3234308 20.9905521 65.8576218 21.028773 64.9767641 21.957454 64.7546199 22.1917178 64.5354776 22.4371472 64.3249123 22.6873006 63.5006628 23.6670859 63.6254581 25.1302147 64.6040936 25.9553988 65.0385185 26.3221472 65.5681481 26.501227 66.0952047 26.501227 66.7545614 26.501227 67.4096296 26.2205828 67.8674269 25.6760429 68.0190253 25.4958896 68.1766277 25.3193865 68.3355166 25.1516871 69.2165887 24.2227914 69.1786355 22.7549387 68.2510331 21.8728528zM67.9838596 50.2488344C65.4092593 47.2804908 63.932729 42.7779448 63.932729 37.8955521 63.932729 35.1621166 64.4104678 32.4729141 65.3149123 30.1182515 65.7739961 28.9226687 65.1783236 27.5808589 63.9846199 27.1209202 62.7904873 26.6609816 61.4505458 27.2574847 60.9912476 28.4530675 59.8852437 31.3333742 59.3005068 34.5984663 59.3005068 37.8951227 59.3005068 43.8790491 61.1906628 49.4904294 64.4865887 53.2903988 64.9448148 53.8186196 65.5885185 54.0889571 66.2360819 54.0889571 66.7745029 54.0889571 67.3154971 53.9019325 67.7539961 53.5207975 68.7195517 52.6805828 68.8226901 51.2157362 67.9838596 50.2488344z"/>
  </g>
</svg>
